<?xml version="1.0" encoding="utf-8"?>
<!-- Generator: Adobe Illustrator 16.0.0, SVG Export Plug-In . SVG Version: 6.00 Build 0)  -->
<!DOCTYPE svg PUBLIC "-//W3C//DTD SVG 1.1//EN" "http://www.w3.org/Graphics/SVG/1.1/DTD/svg11.dtd">
<svg version="1.1" id="Layer_1" xmlns="http://www.w3.org/2000/svg" xmlns:xlink="http://www.w3.org/1999/xlink" x="0px" y="0px"
	 width="24px" height="48px" viewBox="0 0 24 48" enable-background="new 0 0 24 48" xml:space="preserve">
<g display="none">
	<path display="inline" fill="#BBBBBB" d="M17.7,3H6.2C4.5,3,3,4.5,3,6.2v11.5c0,1.8,1.5,3.2,3.2,3.2h11.5c1.8,0,3.2-1.5,3.2-3.2
		V6.2C20.9,4.5,19.5,3,17.7,3z M17.6,9.7l-6.2,6.2c-0.2,0.2-0.5,0.3-0.8,0.3h-0.5c-0.3,0-0.6-0.1-0.8-0.3L6.4,13
		c-0.2-0.2-0.2-0.5,0-0.7l1.2-1.2C7.7,11,8,11,8.2,11.1l1.9,1.9c0.2,0.2,0.5,0.2,0.7,0L15.9,7.9c0.199-0.2,0.5-0.2,0.699,0l1,1.1
		C17.8,9.2,17.8,9.5,17.6,9.7z"/>
</g>
<g display="none">
	<g display="inline">
		<path fill="#78B2F2" d="M17.7,27H6.2C4.5,27,3,28.5,3,30.2v11.5c0,1.8,1.5,3.2,3.2,3.2h11.5c1.8,0,3.2-1.5,3.2-3.2V30.2
			C20.9,28.5,19.5,27,17.7,27z M17.6,33.7l-6.2,6.2c-0.2,0.199-0.5,0.3-0.8,0.3h-0.5c-0.3,0-0.6-0.101-0.8-0.3L6.4,37
			c-0.2-0.2-0.2-0.5,0-0.7l1.2-1.2C7.7,35,8,35,8.2,35.1l1.9,1.9c0.2,0.2,0.5,0.2,0.7,0l5.101-5.1c0.199-0.2,0.5-0.2,0.699,0
			L17.7,33C17.8,33.2,17.8,33.5,17.6,33.7z"/>
	</g>
</g>
<g display="none">
	<path display="inline" fill="#BBBBBB" d="M12,3.1c-4.9,0-8.8,3.9-8.8,8.8s3.9,8.8,8.8,8.8c4.9,0,8.8-3.9,8.8-8.8S16.9,3.1,12,3.1z
		 M12,18.6c-3.7,0-6.7-3-6.7-6.7c0-3.7,3-6.7,6.7-6.7s6.7,3,6.7,6.7C18.7,15.6,15.7,18.6,12,18.6z"/>
	<path display="inline" fill="#BBBBBB" d="M15.7,12.5l-2.4-1.4V7.4c0-0.7-0.6-1.3-1.3-1.3s-1.3,0.6-1.3,1.3v4.5
		c0,0.6,0.4,1.1,0.9,1.2l2.8,1.6c0.6,0.4,1.398,0.2,1.8-0.5C16.5,13.7,16.3,12.9,15.7,12.5z"/>
</g>
<g display="none">
	<path display="inline" fill="#78B2F2" d="M12,27.2c-4.9,0-8.8,3.899-8.8,8.8s3.9,8.8,8.8,8.8c4.9,0,8.8-3.899,8.8-8.8
		S16.9,27.2,12,27.2z M12,42.7c-3.7,0-6.7-3-6.7-6.7s3-6.7,6.7-6.7s6.7,3,6.7,6.7S15.7,42.7,12,42.7z"/>
	<path display="inline" fill="#78B2F2" d="M15.7,36.5l-2.4-1.4V31.4c0-0.7-0.6-1.301-1.3-1.301S10.7,30.7,10.7,31.4v4.5
		c0,0.6,0.4,1.1,0.9,1.199l2.8,1.601c0.6,0.399,1.398,0.2,1.8-0.5C16.5,37.7,16.3,36.9,15.7,36.5z"/>
</g>
<path display="none" fill="#BBBBBB" d="M12,3.1c-4.9,0-8.8,3.9-8.8,8.8s3.9,8.8,8.8,8.8c4.9,0,8.8-3.9,8.8-8.8S16.9,3.1,12,3.1z
	 M16.4,12.5c-0.2,0.1-3.801,0.8-4.5,0.9c-0.3,0.1-0.6,0-0.9-0.1c-0.5-0.3-0.8-0.8-0.7-1.5c0.1-0.7,0.9-4.3,0.9-4.5
	C11.3,7.1,11.4,7,11.6,7c0.2,0,0.3,0.1,0.4,0.4c0,0.2,0.5,2.4,0.8,3.7c1.3,0.3,3.5,0.7,3.7,0.8s0.4,0.2,0.4,0.4
	C16.8,12.4,16.6,12.5,16.4,12.5z"/>
<path display="none" fill="#78B2F2" d="M12,27.1c-4.9,0-8.8,3.9-8.8,8.801c0,4.899,3.9,8.801,8.8,8.801c4.9,0,8.8-3.9,8.8-8.801
	C20.8,31.1,16.9,27.1,12,27.1z M16.4,36.6C16.2,36.7,12.6,37.4,11.9,37.5c-0.3,0.1-0.6,0-0.9-0.1c-0.5-0.301-0.8-0.801-0.7-1.5
	c0.1-0.7,0.9-4.301,0.9-4.5c0.1-0.2,0.2-0.4,0.4-0.4c0.2,0,0.3,0.1,0.4,0.4c0,0.199,0.5,2.398,0.8,3.699
	c1.3,0.301,3.5,0.699,3.7,0.801c0.2,0.1,0.4,0.199,0.4,0.398C16.8,36.4,16.6,36.5,16.4,36.6z"/>
<g display="none">
	<path display="inline" fill="#BBBBBB" d="M3.208,3.1v17.584h17.584V3.1H3.208z M19.439,19.333H4.56V4.452h14.879V19.333z"/>
	<polygon display="inline" fill="#BBBBBB" points="10.813,14.773 7.932,11.892 10.813,9.011 9.853,8.05 6.012,11.892 9.853,15.734 	
		"/>
	<polygon display="inline" fill="#BBBBBB" points="14.146,15.734 17.988,11.892 14.146,8.05 13.188,9.011 16.068,11.892 
		13.188,14.773 	"/>
</g>
<path fill="#BBBBBB" d="M3.208,3.1v17.584h17.584V3.1H3.208z M10.813,14.773l-0.96,0.961l-3.841-3.842L9.853,8.05l0.96,0.961
	l-2.881,2.881L10.813,14.773z M14.146,15.734l-0.959-0.961l2.881-2.881l-2.881-2.881l0.959-0.961l3.842,3.842L14.146,15.734z"/>
<g display="none">
	<path display="inline" fill="#78B2F2" d="M3.208,27.109v17.584h17.584V27.109H3.208z M19.439,43.342H4.56V28.461h14.879V43.342z"/>
	<polygon display="inline" fill="#78B2F2" points="10.813,38.782 7.932,35.9 10.813,33.02 9.853,32.059 6.012,35.9 9.853,39.742 	
		"/>
	<polygon display="inline" fill="#78B2F2" points="14.146,39.742 17.988,35.9 14.146,32.059 13.188,33.02 16.068,35.9 
		13.188,38.782 	"/>
</g>
<path fill="#78B2F2" d="M3.208,27.109v17.584h17.584V27.109H3.208z M10.813,38.782l-0.96,0.96L6.012,35.9l3.841-3.842l0.96,0.961
	L7.932,35.9L10.813,38.782z M14.146,39.742l-0.959-0.96l2.881-2.882l-2.881-2.881l0.959-0.961l3.842,3.842L14.146,39.742z"/>
</svg>
